<?xml version="1.0" encoding="UTF-8"?>
<svg width="1200pt" height="1200pt" version="1.1" viewBox="0 0 1200 1200" xmlns="http://www.w3.org/2000/svg">
 <path d="m456.05 141.97c25.324-7.9531 47.742 18.484 35.754 42.168-27.355 54.043-41.801 113.89-41.801 175.86 0 215.39 174.61 390 390 390 61.977 0 121.82-14.445 175.86-41.801 23.684-11.988 50.121 10.43 42.168 35.754-62.305 198.42-246.83 336.05-458.03 336.05-265.1 0-480-214.9-480-480 0-211.2 137.62-395.73 336.05-458.03zm-276.05 458.03c0 231.96 188.04 420 420 420 161.34 0 304.91-91.797 375.03-230.62-43.227 13.582-88.637 20.617-135.03 20.617-248.53 0-450-201.47-450-450 0-46.391 7.0352-91.801 20.617-135.03-138.82 70.121-230.62 213.69-230.62 375.03z" fill="#fbcfe7"/>
</svg>
