<?xml version="1.0" encoding="UTF-8"?>
<svg width="1200pt" height="1200pt" version="1.1" viewBox="0 0 1200 1200" xmlns="http://www.w3.org/2000/svg">
 <g fill="#fbcfe7">
  <path d="m600 188.76c14.062 0 25.414-11.375 25.414-25.414v-137.93c0-14.027-11.352-25.414-25.414-25.414-14.051 0-25.414 11.387-25.414 25.414v137.93c0 14.039 11.363 25.418 25.414 25.418z"/>
  <path d="m600 1011.2c-14.051 0-25.414 11.375-25.414 25.414v137.93c0 14.051 11.363 25.43 25.414 25.43 14.062 0 25.414-11.375 25.414-25.43v-137.93c0-14.039-11.352-25.418-25.414-25.418z"/>
  <path d="m188.75 600.01c0-14.039-11.375-25.43-25.414-25.43l-137.89 0.003907c-14.051 0-25.441 11.387-25.441 25.43 0 14.027 11.387 25.414 25.441 25.414h137.89c14.039 0 25.414-11.391 25.414-25.418z"/>
  <path d="m1174.6 574.59h-137.94c-14.016 0-25.402 11.387-25.402 25.43 0 14.027 11.387 25.414 25.402 25.414h137.94c14.051 0 25.414-11.387 25.414-25.414 0-14.043-11.363-25.43-25.414-25.43z"/>
  <path d="m908.77 316.67c6.5156 0 12.984-2.4844 17.965-7.4648l97.512-97.512c9.9375-9.9375 9.9375-26.016 0-35.965-9.9258-9.9258-26.016-9.9258-35.953 0l-97.523 97.523c-9.9102 9.9375-9.9102 26.027 0 35.953 4.9805 4.9805 11.484 7.4648 18 7.4648z"/>
  <path d="m273.25 890.79-97.523 97.5c-9.9258 9.9727-9.9258 26.051 0 35.988 4.9688 4.957 11.496 7.4531 18 7.4531 6.5039 0 13.008-2.4961 17.965-7.4531l97.547-97.523c9.8984-9.9258 9.8984-26.027 0-35.965-9.9492-9.9141-26.043-9.9141-35.988 0z"/>
  <path d="m273.25 309.2c4.957 4.9805 11.484 7.4648 17.988 7.4648 6.5039 0 13.008-2.4844 17.988-7.4648 9.8984-9.9258 9.8984-26.004 0-35.953l-97.547-97.523c-9.9102-9.9258-26.039-9.9258-35.965 0-9.9258 9.9492-9.9258 26.027 0 35.965z"/>
  <path d="m926.75 890.79c-9.9102-9.9102-26.004-9.9102-35.953 0-9.9102 9.9258-9.9102 26.039 0 35.965l97.523 97.523c4.9805 4.957 11.449 7.4531 17.988 7.4531 6.4922 0 12.996-2.4961 17.965-7.4531 9.9375-9.9492 9.9375-26.039 0-35.988z"/>
  <path d="m600 312.78c-76.715 0-148.86 29.879-203.09 84.145-9.9375 9.9102-9.9375 26.004 0 35.953 9.9258 9.9492 26.004 9.9102 35.941 0 44.652-44.652 104.02-69.254 167.16-69.254 130.36 0 236.36 106.05 236.36 236.39 0 130.34-106.01 236.35-236.36 236.35-130.34 0-236.38-106.01-236.38-236.35 0-14.039-11.363-25.43-25.43-25.43-14.027 0-25.414 11.387-25.414 25.43 0 158.36 128.83 287.21 287.22 287.21 158.38 0 287.24-128.84 287.24-287.21-0.011718-158.4-128.88-287.23-287.25-287.23z"/>
 </g>
</svg>
